<?xml version="1.0" encoding="utf-8"?>
<svg xmlns="http://www.w3.org/2000/svg" viewBox="0 0 32 32" width="512" height="512">
  <path d="M16 8C7.664063 8 1.25 15.34375 1.25 15.34375L0.65625 16L1.25 16.65625C1.25 16.65625 7.097656 23.324219 14.875 23.9375C15.246094 23.984375 15.617188 24 16 24C16.382813 24 16.753906 23.984375 17.125 23.9375C24.902344 23.324219 30.75 16.65625 30.75 16.65625L31.34375 16L30.75 15.34375C30.75 15.34375 24.335938 8 16 8 Z M 16 10C18.203125 10 20.234375 10.601563 22 11.40625C22.636719 12.460938 23 13.675781 23 15C23 18.613281 20.289063 21.582031 16.78125 21.96875C16.761719 21.972656 16.738281 21.964844 16.71875 21.96875C16.480469 21.980469 16.242188 22 16 22C15.734375 22 15.476563 21.984375 15.21875 21.96875C11.710938 21.582031 9 18.613281 9 15C9 13.695313 9.351563 12.480469 9.96875 11.4375L9.9375 11.4375C11.71875 10.617188 13.773438 10 16 10 Z M 16 12C14.34375 12 13 13.34375 13 15C13 16.65625 14.34375 18 16 18C17.65625 18 19 16.65625 19 15C19 13.34375 17.65625 12 16 12 Z M 7.25 12.9375C7.09375 13.609375 7 14.285156 7 15C7 16.753906 7.5 18.394531 8.375 19.78125C5.855469 18.324219 4.105469 16.585938 3.53125 16C4.011719 15.507813 5.351563 14.203125 7.25 12.9375 Z M 24.75 12.9375C26.648438 14.203125 27.988281 15.507813 28.46875 16C27.894531 16.585938 26.144531 18.324219 23.625 19.78125C24.5 18.394531 25 16.753906 25 15C25 14.285156 24.90625 13.601563 24.75 12.9375Z" fill="#A6A6A6" />
</svg>