<?xml version="1.0" encoding="utf-8"?>
<svg xmlns="http://www.w3.org/2000/svg" viewBox="0 0 26 26" width="208" height="208">
  <path d="M0.8125 0C0.335938 0.0898438 -0.0078125 0.511719 0 1L0 25C0 25.550781 0.449219 26 1 26L16 26C16.550781 26 17 25.550781 17 25L17 20L15 20L15 24L2 24L2 2L15 2L15 6L17 6L17 1C17 0.449219 16.550781 0 16 0L1 0C0.96875 0 0.9375 0 0.90625 0C0.875 0 0.84375 0 0.8125 0 Z M 20.65625 8.0625C20.546875 8.058594 20.441406 8.070313 20.34375 8.125C20.144531 8.230469 20.03125 8.429688 20.03125 8.65625L20.03125 10.96875C20.03125 10.96875 9.78125 11.34375 9.5625 11.5C9.242188 11.726563 9.03125 12.386719 9.03125 13C9.03125 13.617188 9.242188 14.367188 9.5625 14.59375C9.78125 14.75 20.03125 15.03125 20.03125 15.03125L20.03125 17.34375C20.03125 17.570313 20.144531 17.769531 20.34375 17.875C20.542969 17.980469 20.78125 17.96875 20.96875 17.84375C23.390625 16.207031 25.726563 13.484375 25.8125 13.375C25.902344 13.265625 25.96875 13.136719 25.96875 13C25.96875 12.863281 25.902344 12.738281 25.8125 12.625C25.726563 12.515625 23.390625 9.792969 20.96875 8.15625C20.875 8.09375 20.765625 8.066406 20.65625 8.0625Z" fill="#A6A6A6" />
</svg>