<?xml version="1.0" encoding="utf-8"?>
<svg xmlns="http://www.w3.org/2000/svg" viewBox="0 0 32 32" width="512" height="512">
  <path d="M16 2C15.496094 2 15.003906 2.183594 14.625 2.5625L11.8125 5.40625C11.660156 5.488281 11.53125 5.605469 11.4375 5.75L2.5625 14.625C1.804688 15.378906 1.804688 16.617188 2.5625 17.375L14.625 29.4375C15.382813 30.191406 16.617188 30.191406 17.375 29.4375L29.4375 17.375C30.195313 16.621094 30.195313 15.382813 29.4375 14.625L17.375 2.5625C16.996094 2.183594 16.503906 2 16 2 Z M 16 4.03125L27.96875 16L16 27.96875L4.03125 16L12.3125 7.71875L14.0625 9.46875C14.015625 9.636719 14 9.816406 14 10C14 10.738281 14.402344 11.371094 15 11.71875L15 20.28125C14.402344 20.628906 14 21.261719 14 22C14 23.105469 14.894531 24 16 24C17.105469 24 18 23.105469 18 22C18 21.261719 17.597656 20.628906 17 20.28125L17 12.4375L20.0625 15.5C20.019531 15.660156 20 15.828125 20 16C20 17.105469 20.894531 18 22 18C23.105469 18 24 17.105469 24 16C24 14.894531 23.105469 14 22 14C21.828125 14 21.660156 14.019531 21.5 14.0625L17.9375 10.5C17.980469 10.339844 18 10.171875 18 10C18 8.894531 17.105469 8 16 8C15.816406 8 15.636719 8.015625 15.46875 8.0625L13.71875 6.3125Z" fill="#A6A6A6" />
</svg>