<?xml version="1.0" encoding="utf-8"?>
<svg xmlns="http://www.w3.org/2000/svg" viewBox="0 0 32 32" width="512" height="512">
  <path d="M2 5L2 26L6 26L6 27L10 27L10 26L22 26L22 27L26 27L26 26L30 26L30 7L17 7L17 5 Z M 4 7L15 7L15 9L28 9L28 24L26 24L26 23L22 23L22 24L10 24L10 23L6 23L6 24L4 24 Z M 11 11C9.355469 11 8 12.355469 8 14C8 14.957031 8.449219 15.824219 9.15625 16.375C7.316406 17.113281 6 18.902344 6 21L8 21C8 19.332031 9.332031 18 11 18C12.667969 18 14 19.332031 14 21L16 21C16 18.902344 14.683594 17.113281 12.84375 16.375C13.550781 15.824219 14 14.957031 14 14C14 12.355469 12.644531 11 11 11 Z M 11 13C11.5625 13 12 13.4375 12 14C12 14.5625 11.5625 15 11 15C10.4375 15 10 14.5625 10 14C10 13.4375 10.4375 13 11 13 Z M 18 13L18 15L26 15L26 13 Z M 18 17L18 19L26 19L26 17Z" fill="#A6A6A6" />
</svg>