<?xml version="1.0" encoding="utf-8"?>
<svg xmlns="http://www.w3.org/2000/svg" viewBox="0 0 128 128" width="512" height="512">
  <path d="M114 21H64c-1.7 0-3 1.3-3 3s1.3 3 3 3h50c1.7 0 3-1.3 3-3S115.7 21 114 21zM114 61H64c-1.7 0-3 1.3-3 3s1.3 3 3 3h50c1.7 0 3-1.3 3-3S115.7 61 114 61zM114 101H64c-1.7 0-3 1.3-3 3s1.3 3 3 3h50c1.7 0 3-1.3 3-3S115.7 101 114 101zM21 39c8.3 0 15-6.7 15-15S29.3 9 21 9 6 15.7 6 24 12.7 39 21 39zM21 15c5 0 9 4 9 9s-4 9-9 9-9-4-9-9S16 15 21 15zM21 79c8.3 0 15-6.7 15-15s-6.7-15-15-15S6 55.7 6 64 12.7 79 21 79zM21 55c5 0 9 4 9 9s-4 9-9 9-9-4-9-9S16 55 21 55zM6.9 106.3L18 117.5c.6.6 1.3.9 2.1.9 0 0 .1 0 .1 0 .8 0 1.6-.4 2.2-1l22.3-26c1.1-1.3.9-3.2-.3-4.2-1.3-1.1-3.2-.9-4.2.3L20 110.9l-8.9-8.9c-1.2-1.2-3.1-1.2-4.2 0C5.7 103.2 5.7 105.1 6.9 106.3z" fill="#A6A6A6" />
</svg>