<?xml version="1.0" encoding="utf-8"?>
<svg xmlns="http://www.w3.org/2000/svg" viewBox="0 0 48 48" width="144" height="144">
  <path d="M21.5 6 A 1.50015 1.50015 0 0 0 20.099609 6.9609375L7.8007812 38.9375L5.5 38.9375 A 1.50015 1.50015 0 1 0 5.5 41.9375L42.5 41.9375 A 1.50015 1.50015 0 1 0 42.5 38.9375L39.890625 38.9375 A 1.50015 1.50015 0 0 0 39.873047 38.896484L29.798828 16L34.5 16 A 1.50015 1.50015 0 0 0 35.421875 13.316406L26.421875 6.3164062 A 1.50015 1.50015 0 0 0 25.5 6L21.5 6 z M 22.529297 9L24.984375 9L30.126953 13L27.5 13 A 1.50015 1.50015 0 0 0 26.126953 15.103516L33.974609 32.9375L13.324219 32.9375L22.529297 9 z M 24.5 19 A 1.5 1.5 0 0 0 24.5 22 A 1.5 1.5 0 0 0 24.5 19 z M 20.5 24 A 1.5 1.5 0 0 0 20.5 27 A 1.5 1.5 0 0 0 20.5 24 z M 25.912109 25C25.581109 25 25.270656 25.065062 24.972656 25.164062C25.872656 25.510063 26.513672 26.378391 26.513672 27.400391C26.513672 28.725391 25.438281 29.800781 24.113281 29.800781C23.877281 29.800781 23.6535 29.754406 23.4375 29.691406C23.9775 30.480406 24.883109 31 25.912109 31C27.569109 31 28.912109 29.657 28.912109 28C28.912109 26.343 27.569109 25 25.912109 25 z M 12.181641 35.90625 A 1.50015 1.50015 0 0 0 12.5 35.9375L35.292969 35.9375L36.613281 38.9375L11.015625 38.9375L12.181641 35.90625 z" fill="#A6A6A6" />
</svg>